<svg width="40" height="40" viewBox="0 0 40 40" fill="none" xmlns="http://www.w3.org/2000/svg">
<circle cx="20" cy="20" r="19" stroke="#F9C56F" stroke-width="2"/>
<g clip-path="url(#clip0)">
<path d="M28.6995 28.1473C24.2141 25.3797 23.2915 20.4807 22.7507 15.6772C22.6235 14.6275 22.0191 12.3689 20.3967 13.4504C19.7605 13.8958 19.4106 14.5956 19.0288 15.2319C18.5835 15.9953 18.1063 16.6952 17.5655 17.2996C17.4701 15.6772 17.311 14.0549 16.8338 12.5597C16.4839 11.4145 15.1478 10.9055 14.2889 11.9235C13.6209 12.7188 13.0483 15.2001 11.744 14.8183C10.1853 14.373 9.54902 16.7588 11.076 17.2042C12.4439 17.6177 13.6527 17.1724 14.5752 16.1226C14.7025 15.9635 14.8297 15.8363 14.9251 15.6772C15.0842 17.0769 15.116 18.5403 15.2114 19.8763C15.2751 20.7352 16.2612 21.5305 17.0883 20.9579C18.5198 20.0036 19.5378 18.8266 20.4603 17.5223C20.4921 17.8086 20.5239 18.0631 20.5558 18.3494C21.2238 23.1529 23.1643 27.6383 27.427 30.2787C28.8267 31.1694 30.0674 29.0062 28.6995 28.1473" fill="#F9C56F"/>
</g>
<defs>
<clipPath id="clip0">
<rect x="9.58084" y="10.7783" width="20.3593" height="20.3593" fill="white"/>
</clipPath>
</defs>
</svg>
