<?xml version="1.0" encoding="UTF-8" standalone="no"?>
<!DOCTYPE svg PUBLIC "-//W3C//DTD SVG 1.1//EN" "http://www.w3.org/Graphics/SVG/1.1/DTD/svg11.dtd">
<svg width="100%" height="100%" viewBox="0 0 579 222" version="1.1" xmlns="http://www.w3.org/2000/svg" xmlns:xlink="http://www.w3.org/1999/xlink" xml:space="preserve" xmlns:serif="http://www.serif.com/" style="fill-rule:evenodd;clip-rule:evenodd;stroke-linejoin:round;stroke-miterlimit:2;">
    <g transform="matrix(1,0,0,1,-390.418,-57.4308)">
        <g transform="matrix(1.76553,0,0,1.13517,-245.924,-141.939)">
            <g transform="matrix(1.03928,0,0,0.880927,-32241.2,-34651.2)">
                <g transform="matrix(132.914,0,0,243.881,31409,39709.2)">
                    <path d="M0.087,-0.412L0.087,0L0.229,0L0.229,-0.517L0.086,-0.517L0.087,-0.412Z" style="fill-rule:nonzero;"/>
                </g>
                <g transform="matrix(132.914,0,0,243.881,31440.7,39709.2)">
                    <path d="M0.06,-0.517L0.06,0L0.201,0L0.201,-0.381C0.213,-0.39 0.225,-0.398 0.236,-0.403C0.247,-0.408 0.26,-0.411 0.275,-0.411C0.29,-0.411 0.301,-0.407 0.31,-0.4C0.318,-0.392 0.322,-0.376 0.322,-0.351L0.322,0L0.464,0L0.464,-0.383C0.464,-0.435 0.453,-0.472 0.431,-0.493C0.408,-0.514 0.375,-0.524 0.331,-0.524C0.299,-0.524 0.272,-0.518 0.25,-0.507C0.227,-0.495 0.206,-0.48 0.187,-0.462L0.187,-0.517C0.187,-0.517 0.118,-0.516 0.06,-0.517Z" style="fill-rule:nonzero;"/>
                </g>
                <g transform="matrix(132.914,0,0,243.881,31502.2,39709.2)">
                    <path d="M0.06,-0.517L0.06,0.193L0.201,0.167L0.201,-0.034C0.214,-0.023 0.23,-0.012 0.249,-0.002C0.268,0.008 0.292,0.013 0.319,0.013C0.348,0.013 0.373,0.009 0.394,-0.001C0.415,-0.01 0.432,-0.025 0.446,-0.047C0.46,-0.068 0.471,-0.097 0.478,-0.133C0.485,-0.168 0.488,-0.213 0.488,-0.267C0.488,-0.317 0.484,-0.359 0.477,-0.392C0.469,-0.425 0.458,-0.451 0.444,-0.471C0.429,-0.49 0.411,-0.504 0.39,-0.512C0.369,-0.52 0.345,-0.524 0.318,-0.524C0.292,-0.524 0.269,-0.519 0.248,-0.508C0.227,-0.497 0.206,-0.482 0.187,-0.462L0.188,-0.517L0.06,-0.517ZM0.268,-0.1C0.253,-0.1 0.24,-0.103 0.229,-0.108C0.218,-0.113 0.208,-0.12 0.201,-0.127L0.201,-0.382C0.21,-0.39 0.221,-0.397 0.232,-0.403C0.243,-0.408 0.257,-0.411 0.273,-0.411C0.286,-0.411 0.296,-0.409 0.305,-0.405C0.313,-0.401 0.32,-0.394 0.325,-0.383C0.33,-0.372 0.333,-0.356 0.335,-0.336C0.336,-0.316 0.337,-0.29 0.337,-0.259C0.337,-0.226 0.336,-0.2 0.334,-0.179C0.332,-0.158 0.328,-0.142 0.323,-0.131C0.318,-0.119 0.311,-0.111 0.302,-0.107C0.293,-0.102 0.282,-0.1 0.268,-0.1Z" style="fill-rule:nonzero;"/>
                </g>
                <g transform="matrix(122.399,0,0,244.116,31365.4,39709.2)">
                    <path d="M0.206,0.013C0.271,0.013 0.319,-0.002 0.349,-0.031C0.378,-0.06 0.393,-0.102 0.393,-0.156C0.393,-0.183 0.389,-0.205 0.382,-0.224C0.375,-0.242 0.365,-0.257 0.353,-0.269C0.34,-0.281 0.326,-0.291 0.309,-0.298C0.292,-0.305 0.273,-0.312 0.253,-0.317C0.239,-0.321 0.227,-0.325 0.218,-0.328C0.209,-0.331 0.201,-0.334 0.196,-0.338C0.19,-0.341 0.186,-0.346 0.184,-0.351C0.182,-0.356 0.18,-0.363 0.18,-0.37C0.181,-0.38 0.184,-0.392 0.191,-0.4C0.2,-0.408 0.216,-0.414 0.232,-0.414C0.252,-0.414 0.271,-0.412 0.288,-0.408C0.305,-0.404 0.354,-0.394 0.371,-0.385L0.37,-0.483C0.349,-0.492 0.326,-0.504 0.309,-0.509C0.286,-0.515 0.246,-0.523 0.211,-0.523C0.156,-0.523 0.12,-0.511 0.089,-0.485C0.058,-0.459 0.034,-0.418 0.034,-0.366C0.034,-0.342 0.037,-0.324 0.043,-0.307C0.049,-0.29 0.064,-0.273 0.076,-0.263C0.089,-0.251 0.104,-0.241 0.119,-0.233C0.134,-0.225 0.149,-0.218 0.168,-0.211C0.199,-0.199 0.22,-0.193 0.233,-0.186C0.246,-0.179 0.252,-0.166 0.252,-0.148C0.252,-0.118 0.229,-0.099 0.183,-0.099C0.161,-0.099 0.14,-0.102 0.12,-0.109C0.099,-0.116 0.06,-0.135 0.043,-0.146L0.043,-0.025C0.063,-0.013 0.064,-0.011 0.096,-0.002C0.128,0.008 0.165,0.013 0.206,0.013Z" style="fill-rule:nonzero;"/>
                </g>
                <g transform="matrix(0.544996,0,0,1,14335,-26.1353)">
                    <path d="M31722.7,39729.4C31721.9,39729.8 31707.5,39738.5 31690.1,39740.3C31669.4,39742.1 31654,39735.1 31644.2,39724.8C31634.5,39714.5 31629.6,39697.6 31629.6,39674.2C31629.6,39662.5 31630.8,39652.5 31633.2,39644.2C31635.5,39635.9 31638.9,39629.2 31643.4,39624.1C31647.9,39619 31653.4,39615.2 31659.9,39612.9C31666.4,39610.5 31673.7,39609.3 31681.8,39609.3C31700.5,39609.3 31710.9,39614.7 31718.9,39625.3C31727,39636 31731,39652.8 31731,39675.7L31731,39685.7L31666.9,39685.7C31667.3,39691.4 31667.9,39696 31668.9,39699.6C31669.9,39703.2 31671.2,39706 31673,39708C31674.8,39710 31677.1,39711.4 31679.7,39712.1C31682.4,39712.9 31685.6,39713.2 31689.4,39713.2C31695.4,39713.2 31700.9,39712.1 31705.5,39710.9C31710.7,39709.4 31715.3,39707.1 31722.5,39702.6L31722.7,39729.4ZM31699.1,39662.3C31699,39657.2 31698.7,39653 31698.3,39649.5C31697.9,39646 31697,39643.1 31695.8,39640.8C31694.6,39638.5 31693,39636.9 31691,39635.8C31688.9,39634.8 31686.3,39634.2 31683,39634.2C31680.3,39634.2 31677.9,39634.6 31676,39635.4C31674,39636.3 31672.4,39637.7 31671.2,39639.8C31670,39641.9 31669,39644.8 31668.3,39648.5C31667.5,39652.1 31667.1,39656.7 31666.9,39662.3L31699.1,39662.3Z" style="fill-rule:nonzero;"/>
                </g>
                <g transform="matrix(123.611,0,0,246.534,31625.8,39711.8)">
                    <path d="M0.169,-0.274L0.026,0L0.185,0L0.251,-0.18C0.254,-0.169 0.312,0 0.312,0L0.476,0L0.336,-0.277L0.463,-0.511L0.304,-0.511L0.251,-0.356L0.209,-0.511L0.045,-0.511L0.169,-0.274Z" style="fill-rule:nonzero;"/>
                </g>
                <g transform="matrix(0.544996,0,0,1,13615.8,-455.219)">
                    <circle cx="32686.8" cy="40007" r="17.39"/>
                </g>
            </g>
        </g>
    </g>
</svg>
